<?xml version="1.0" encoding="utf-8"?>
<!-- Generator: Adobe Illustrator 21.0.0, SVG Export Plug-In . SVG Version: 6.00 Build 0)  -->
<svg version="1.1" id="Layer_1" xmlns="http://www.w3.org/2000/svg" xmlns:xlink="http://www.w3.org/1999/xlink" x="0px" y="0px"
	 width="73px" height="79px" viewBox="0 0 73 79" enable-background="new 0 0 73 79" xml:space="preserve">
<path fill="#FFFFFF" d="M12.824,0.059l5.733,20.705v9.933h4.964v-9.933l5.809-20.705h-5.002l-2.081,9.422
	c-0.585,2.751-0.958,4.706-1.129,5.872h-0.151c-0.242-1.631-0.619-3.601-1.129-5.909l-2.006-9.384H12.824z M35.121,7.873
	c-1.683,0-3.041,0.331-4.075,1.003c-1.037,0.668-1.796,1.738-2.283,3.198c-0.484,1.463-0.732,3.393-0.732,5.802v3.248
	c0,2.383,0.217,4.296,0.643,5.733c0.426,1.437,1.14,2.497,2.151,3.179c1.011,0.681,2.406,1.025,4.182,1.028
	c1.728,0,3.105-0.337,4.112-1.009c1.008-0.672,1.74-1.722,2.189-3.172c0.449-1.45,0.675-3.365,0.675-5.752v-3.254
	c0-2.409-0.232-4.333-0.694-5.783c-0.462-1.447-1.188-2.516-2.189-3.198C38.103,8.213,36.774,7.873,35.121,7.873z M44.595,8.314
	v16.719c0,2.07,0.356,3.594,1.06,4.566c0.707,0.972,1.801,1.457,3.286,1.457c2.141,0,3.75-1.033,4.819-3.103h0.107l0.442,2.737
	h3.942V8.314h-5.033v17.772c-0.194,0.417-0.492,0.76-0.896,1.028c-0.404,0.271-0.822,0.404-1.261,0.404
	c-0.513,0-0.878-0.217-1.097-0.643c-0.22-0.426-0.328-1.131-0.328-2.132V8.314H44.595z M35.007,11.341
	c0.704,0,1.205,0.374,1.482,1.116c0.281,0.739,0.416,1.911,0.416,3.519v6.975c0,1.656-0.139,2.846-0.416,3.576
	c-0.278,0.73-0.775,1.094-1.476,1.097c-0.704,0-1.195-0.368-1.463-1.097c-0.271-0.73-0.404-1.923-0.404-3.576v-6.975
	c0-1.605,0.145-2.776,0.423-3.519C33.847,11.718,34.326,11.341,35.007,11.341z M9.872,35.256c-4.46,0-8.074,3.613-8.074,8.073
	v25.832c0,4.459,3.614,8.073,8.074,8.073h54.9c4.46,0,8.074-3.613,8.074-8.073V43.329c0-4.459-3.614-8.073-8.074-8.073H9.872z
	 M37.512,42.679h4.1v9.958h0.032c0.368-0.72,0.892-1.298,1.571-1.741c0.678-0.442,1.413-0.662,2.195-0.662
	c1.008,0,1.794,0.268,2.365,0.801c0.572,0.533,0.994,1.401,1.249,2.592c0.255,1.195,0.385,2.848,0.385,4.963v2.983
	c0,2.816-0.337,4.885-1.015,6.212c-0.678,1.327-1.742,1.993-3.179,1.993c-0.801,0-1.53-0.187-2.189-0.555s-1.147-0.874-1.476-1.514
	h-0.095l-0.429,1.785h-3.513V42.679z M12.08,43.638h12.609v3.425h-4.226v22.433H16.3V47.063h-4.22V43.638z M57.077,50.247
	c1.456,0,2.58,0.262,3.362,0.795c0.778,0.536,1.333,1.371,1.653,2.497c0.316,1.13,0.473,2.694,0.473,4.686v3.242H55.45v0.959
	c0,1.214,0.033,2.121,0.107,2.724c0.074,0.604,0.222,1.05,0.448,1.324c0.226,0.278,0.576,0.416,1.047,0.416
	c0.636,0,1.073-0.247,1.312-0.738c0.236-0.491,0.365-1.316,0.385-2.466l3.665,0.214c0.019,0.161,0.032,0.394,0.032,0.681
	c0,1.747-0.476,3.051-1.432,3.91c-0.956,0.865-2.309,1.299-4.056,1.299c-2.096,0-3.563-0.66-4.409-1.974
	c-0.846-1.314-1.261-3.351-1.261-6.105v-3.298c0-2.835,0.44-4.904,1.312-6.212S54.962,50.247,57.077,50.247z M30.7,50.594h4.258
	v18.895h-0.013v0.006h-3.33l-0.366-2.315h-0.095c-0.904,1.75-2.26,2.624-4.068,2.624c-1.256,0-2.178-0.406-2.775-1.23
	c-0.597-0.82-0.896-2.11-0.896-3.853V50.601h4.264v13.875c0,0.84,0.093,1.449,0.278,1.804c0.187,0.362,0.491,0.536,0.927,0.536
	c0.368,0,0.721-0.111,1.06-0.341c0.342-0.226,0.589-0.515,0.757-0.864V50.594z M56.989,53.117c-0.452,0-0.793,0.133-1.009,0.397
	c-0.216,0.268-0.361,0.705-0.429,1.312c-0.074,0.604-0.107,1.526-0.107,2.756v1.356h3.11v-1.356c0-1.214-0.039-2.13-0.12-2.756
	c-0.081-0.63-0.225-1.066-0.442-1.324C57.775,53.247,57.444,53.117,56.989,53.117z M43.491,53.256c-0.41,0-0.793,0.163-1.142,0.492
	c-0.349,0.329-0.596,0.751-0.738,1.261v10.728c0.187,0.329,0.428,0.573,0.725,0.738c0.297,0.161,0.619,0.252,0.971,0.252
	c0.452,0,0.811-0.163,1.079-0.492c0.268-0.329,0.458-0.884,0.568-1.665c0.113-0.778,0.17-1.86,0.17-3.235V58.9
	c0-1.479-0.045-2.621-0.139-3.425c-0.09-0.801-0.259-1.373-0.492-1.709C44.258,53.431,43.927,53.256,43.491,53.256z"/>
</svg>
