<?xml version="1.0" encoding="utf-8"?>
<!-- Generator: Adobe Illustrator 21.0.0, SVG Export Plug-In . SVG Version: 6.00 Build 0)  -->
<svg version="1.1" id="Layer_1" xmlns="http://www.w3.org/2000/svg" xmlns:xlink="http://www.w3.org/1999/xlink" x="0px" y="0px"
	 width="79px" height="79px" viewBox="0 0 79 79" enable-background="new 0 0 79 79" xml:space="preserve">
<g id="surface1_3_">
	<path fill="#FFFFFF" d="M24.312,1.059c-12.457,0-22.695,10.222-22.695,22.692v31.791c0,12.456,10.224,22.692,22.695,22.692h31.795
		c12.457,0,22.695-10.222,22.695-22.692V23.751c0-12.456-10.224-22.692-22.695-22.692H24.312z M24.312,8.075h31.795
		c8.675,0,15.678,7.002,15.678,15.676v31.791c0,8.674-7.003,15.676-15.678,15.676H24.312c-8.675,0-15.678-7.002-15.678-15.676
		V23.751C8.634,15.077,15.637,8.075,24.312,8.075z M60.93,15.748c-1.768,0-3.179,1.411-3.179,3.179c0,1.768,1.412,3.179,3.179,3.179
		c1.768,0,3.179-1.411,3.179-3.179C64.11,17.16,62.698,15.748,60.93,15.748z M40.209,18.598c-11.58,0-21.05,9.469-21.05,21.048
		s9.47,21.048,21.05,21.048s21.05-9.469,21.05-21.048S51.789,18.598,40.209,18.598z M40.209,25.614
		c7.798,0,14.033,6.235,14.033,14.032s-6.236,14.032-14.033,14.032s-14.033-6.235-14.033-14.032S32.411,25.614,40.209,25.614z"/>
</g>
</svg>
